<svg width="512" height="512" viewBox="0 0 512 512" fill="none" xmlns="http://www.w3.org/2000/svg">
<mask id="mask0" mask-type="alpha" maskUnits="userSpaceOnUse" x="20" y="79" width="468" height="403">
<path fill-rule="evenodd" clip-rule="evenodd" d="M333.122 79.9219H487.416V413.006H333.122C267.357 413.006 264.786 475.77 264.638 481.335H245.074C244.988 475.77 242.366 413.006 177.226 413.006H20.6878L20 403.25V79.9219H176.585C210.601 79.9219 240.195 99.3229 254.888 127.707C269.513 99.3229 299.106 79.9219 333.122 79.9219ZM123.61 247.523C113.043 239.891 104.035 231.117 96.5849 221.244L78.3383 234.57C84.2982 246.655 92.6877 258.811 103.507 271.039C114.304 283.267 127.163 294.238 142.086 303.996C157.009 313.754 173.789 321.638 192.424 327.691C211.06 333.751 231.209 336.767 252.826 336.767C274.441 336.767 294.59 333.751 313.226 327.691C331.862 321.638 348.642 313.754 363.566 303.996C378.463 294.238 391.322 283.267 402.143 271.039C412.964 258.811 421.353 246.655 427.312 234.57L409.043 221.244C401.594 231.117 392.585 239.869 382.018 247.523C371.472 255.177 359.967 261.489 347.541 266.422C335.116 271.362 322.006 275.132 308.206 277.716C294.407 280.294 280.539 281.601 266.625 281.601H239.026C225.089 281.601 211.244 280.294 197.445 277.716C183.644 275.132 170.533 271.362 158.109 266.422C145.662 261.467 134.177 255.177 123.61 247.523Z" fill="white"/>
</mask>
<g mask="url(#mask0)">
<path d="M499.879 69.9231H6.38452V492H499.879V69.9231Z" fill="#7B7FDA"/>
</g>
</svg>
